<?xml version="1.0" encoding="UTF-8"?>
<svg id="Capa_1" data-name="Capa 1" xmlns="http://www.w3.org/2000/svg" viewBox="0 0 70 70">
  <defs>
    <style>
      .cls-1 {
        fill-rule: evenodd;
      }

      .cls-1, .cls-2 {
        stroke-width: 0px;
      }
    </style>
  </defs>
  <g id="Wa">
    <path class="cls-2" d="m35,11.5c-12.98,0-23.5,10.52-23.5,23.5s10.52,23.5,23.5,23.5,23.5-10.52,23.5-23.5-10.52-23.5-23.5-23.5Zm.76,37.93h0c-2.5,0-4.95-.63-7.12-1.81l-7.9,2.07,2.11-7.72c-1.3-2.26-1.99-4.82-1.99-7.45,0-8.22,6.69-14.9,14.91-14.9,3.99,0,7.73,1.55,10.55,4.37,2.81,2.82,4.36,6.56,4.36,10.54,0,8.22-6.69,14.9-14.91,14.9Z"/>
    <path class="cls-1" d="m44.52,25.76c-2.34-2.34-5.45-3.63-8.76-3.63-6.83,0-12.39,5.56-12.4,12.39,0,2.34.65,4.62,1.89,6.59l.29.47-1.25,4.57,4.69-1.23.45.27c1.9,1.13,4.08,1.73,6.31,1.73h0c6.83,0,12.39-5.56,12.39-12.39,0-3.31-1.29-6.42-3.63-8.76Zm-1.47,14.08c-.31.87-1.8,1.66-2.51,1.77-.64.1-1.45.14-2.35-.15-.54-.17-1.23-.4-2.12-.78-3.74-1.61-6.18-5.37-6.36-5.62s-1.52-2.02-1.52-3.85.96-2.73,1.3-3.11c.34-.37.74-.47.99-.47s.5,0,.71.01c.23.01.54-.09.84.64.31.75,1.06,2.58,1.15,2.76.09.19.16.4.03.65-.12.25-.19.4-.37.62-.19.22-.39.49-.56.65-.19.19-.38.39-.16.76.22.37.96,1.59,2.07,2.58,1.42,1.27,2.62,1.66,3,1.85.37.19.59.16.81-.09s.93-1.09,1.18-1.46c.25-.37.5-.31.84-.19s2.17,1.03,2.55,1.21c.37.19.62.28.71.43.09.16.09.9-.22,1.77Z"/>
  </g>
</svg>