<?xml version="1.0" encoding="utf-8"?>
<!-- Generator: Adobe Illustrator 28.0.0, SVG Export Plug-In . SVG Version: 6.00 Build 0)  -->
<svg version="1.1" id="Capa_1" xmlns="http://www.w3.org/2000/svg" xmlns:xlink="http://www.w3.org/1999/xlink" x="0px" y="0px"
	 viewBox="0 0 70 70" style="enable-background:new 0 0 70 70;" xml:space="preserve">
<style type="text/css">
	.st0{fill:#FFFFFF;}
</style>
<path class="st0" d="M57.3,6.8l-13-2.5c-2.8-0.6-5.6,1.3-6.1,4.1l-2.5,13c-0.5,2.8,1.3,5.6,4.1,6.1l13,2.5c2.8,0.5,5.6-1.3,6.1-4.1
	l2.5-13C61.9,10.1,60.1,7.3,57.3,6.8z M45.4,9.3c1.4,0.3,2.3,1.6,2,3s-1.6,2.3-3,2s-2.3-1.6-2-3S44,9,45.4,9.3z M42.7,23.2
	c-1.4-0.3-2.3-1.6-2-3s1.6-2.3,3-2s2.3,1.6,2,3C45.4,22.6,44,23.5,42.7,23.2z M48,19.6c-1.4-0.3-2.3-1.6-2-3s1.6-2.3,3-2
	s2.3,1.6,2,3S49.4,19.9,48,19.6z M51.6,25c-1.4-0.3-2.3-1.6-2-3s1.6-2.3,3-2s2.3,1.6,2,3S53,25.2,51.6,25z M53.4,16
	c-1.4-0.3-2.3-1.6-2-3s1.6-2.3,3-2s2.3,1.6,2,3S54.7,16.3,53.4,16z"/>
<path class="st0" d="M24.1,15.5l-12.3,5c-2.7,1.1-4,4.1-2.9,6.8l4.9,12.3c1.1,2.7,4.1,4,6.8,2.9l12.3-5c2.7-1.1,4-4.1,2.9-6.8
	l-4.9-12.3C29.8,15.7,26.8,14.4,24.1,15.5z M21.5,39c-1.3,0.5-2.8-0.1-3.3-1.4s0.1-2.8,1.4-3.3s2.8,0.1,3.3,1.4S22.7,38.5,21.5,39z
	 M19.1,33c-1.3,0.5-2.8-0.1-3.3-1.4s0.1-2.8,1.4-3.3s2.8,0.1,3.3,1.4S20.4,32.5,19.1,33z M16.7,27.1c-1.3,0.5-2.8-0.1-3.3-1.4
	s0.1-2.8,1.4-3.3s2.8,0.1,3.3,1.4S18,26.5,16.7,27.1z M29.9,35.6c-1.3,0.5-2.8-0.1-3.3-1.4s0.1-2.8,1.4-3.3s2.8,0.1,3.3,1.4
	S31.2,35.1,29.9,35.6z M27.5,29.6c-1.3,0.5-2.8-0.1-3.3-1.4s0.1-2.8,1.4-3.3s2.8,0.1,3.3,1.4S28.8,29.1,27.5,29.6z M25.1,23.7
	c-1.3,0.5-2.8-0.1-3.3-1.4s0.1-2.8,1.4-3.3s2.8,0.1,3.3,1.4C27,21.7,26.4,23.2,25.1,23.7z"/>
<g>
	<path class="st0" d="M18.5,65.8c-0.1,0-0.1-0.1-0.1-0.1c0-0.1-0.1-0.2-0.1-0.3c0-0.2,0-0.3-0.1-0.3c-0.1-0.1-0.2-0.1-0.5-0.2
		c-0.2-0.2-0.3-0.3-0.3-0.5c-0.1-0.2-0.1-0.5-0.2-1c0-0.4-0.1-1.1-0.1-2c0-0.5,0.1-0.9,0.1-1.2c0-0.3,0-0.7,0.1-0.9s0.1-0.6,0.1-0.9
		c0-0.3,0.1-0.8,0.2-1.3c0-0.3,0-0.7,0.1-1c0.1-0.4,0.1-0.7,0-0.9c0.1-0.3,0.2-0.7,0.2-1.1c0-0.4,0.1-0.8,0.2-1.1
		c0-0.2,0.1-0.5,0.1-0.7s0.1-0.4,0.1-0.5c0-0.3,0-0.5,0.1-0.8c0.1-0.3,0.2-0.4,0.4-0.5c0.1,0,0.2,0,0.4-0.1c0.2,0,0.3,0,0.3,0.1
		c0.2,0.1,0.2,0.2,0.3,0.3c0,0.2,0,0.3,0,0.5c0,0.2,0,0.4,0,0.8c0,0.4,0,0.8-0.1,1.2c0,0.5-0.1,0.9-0.2,1.3
		c-0.1,0.6-0.2,1.2-0.3,1.8c-0.1,0.6-0.1,1.2-0.1,1.8c-0.1,1.1-0.1,2.1-0.2,2.9c-0.1,0.8-0.1,1.3,0,1.6c0,0,0,0.1,0,0.3
		c0,0.1,0,0.3,0.1,0.4c0,0.1,0.1,0.2,0.1,0.2c0.1,0,0.2-0.1,0.3-0.2s0.2-0.3,0.2-0.5c0.1-0.2,0.2-0.4,0.2-0.6
		c0.2-0.3,0.4-0.7,0.6-1.1c0.2-0.4,0.4-0.8,0.5-1.2c0.3-0.6,0.5-1.1,0.8-1.5c0.3-0.4,0.5-0.9,0.7-1.4c0.1-0.2,0.2-0.5,0.5-1
		c0.2-0.4,0.4-0.8,0.6-1.2c0.2-0.4,0.5-0.7,0.7-1s0.5-0.8,0.8-1.3c0.4-0.7,0.7-1.1,1-1.4s0.5-0.4,0.7-0.4c0.2,0,0.3,0,0.3,0
		s0.1,0.1,0.2,0.2c0.1,0.2,0.2,0.3,0.2,0.5c0,0.2,0,0.4-0.2,0.7c-0.1,0.3-0.4,0.7-0.8,1.2c-0.3,0.4-0.6,0.9-0.9,1.5
		c-0.3,0.6-0.7,1.1-0.9,1.6c-0.3,0.5-0.5,0.9-0.6,1.1c-0.1,0.2-0.1,0.3-0.2,0.5s-0.1,0.3-0.3,0.5c-0.1,0.1-0.3,0.4-0.6,0.9
		c-0.2,0.5-0.5,0.9-0.7,1.4c-0.3,0.6-0.5,1-0.6,1.4c-0.1,0.3-0.3,0.6-0.4,0.8c-0.1,0.2-0.2,0.4-0.3,0.6c-0.1,0.2-0.2,0.4-0.3,0.7
		c-0.1,0.2-0.2,0.5-0.3,0.7c-0.1,0.2-0.2,0.4-0.2,0.5c-0.1,0.2-0.2,0.3-0.4,0.4c-0.2,0.1-0.4,0.2-0.6,0.3
		C18.7,65.9,18.6,65.9,18.5,65.8z"/>
	<path class="st0" d="M26.2,64.3c-0.2,0-0.3,0-0.4-0.1c-0.1-0.1-0.2-0.2-0.4-0.3c-0.3-0.3-0.5-0.6-0.6-0.8c-0.1-0.3-0.2-0.5-0.1-0.8
		c0-0.1,0.1-0.3,0-0.5c-0.1-0.1-0.1-0.1-0.1-0.1s0.1-0.1,0.1-0.1c0.1,0,0.1-0.1,0.1-0.2c0-0.1,0-0.4,0.2-0.7
		c0.1-0.4,0.3-0.7,0.5-1.1c0.1-0.1,0.2-0.3,0.4-0.6s0.4-0.5,0.6-0.7s0.4-0.4,0.6-0.6c0.3-0.3,0.7-0.5,0.9-0.7
		c0.3-0.2,0.6-0.3,0.9-0.3c0.3-0.1,0.6-0.1,0.7-0.1c0.2,0,0.4,0.1,0.6,0.3c0.3,0.1,0.6,0.3,0.7,0.5c0.1,0.2,0.2,0.5,0.3,0.9
		c0,0.4,0,0.9-0.1,1.5c-0.1,0.6-0.4,1.2-1,2c-0.4,0.5-0.7,0.9-1,1.1c-0.3,0.3-0.7,0.5-1.1,0.7c-0.3,0.2-0.6,0.3-0.8,0.4
		C26.8,64.3,26.5,64.3,26.2,64.3z M28.2,62c0.3-0.3,0.6-0.7,0.8-1c0.2-0.3,0.4-0.7,0.5-1.2c0.1-0.1,0.1-0.3,0.1-0.5
		c0-0.2,0-0.4,0-0.6c0-0.2-0.1-0.3-0.1-0.3c-0.2-0.1-0.3-0.1-0.5-0.1c-0.2,0-0.4,0.2-0.7,0.4c-0.4,0.4-0.8,0.8-1.1,1.3
		s-0.6,1.1-0.9,1.8c-0.2,0.4-0.2,0.8-0.1,1.1c0.1,0.3,0.4,0.3,0.7,0.3C27.3,62.9,27.7,62.5,28.2,62z"/>
	<path class="st0" d="M32.9,64.7c-0.3,0.1-0.5,0-0.7-0.2S32,64,31.9,63.6s0-0.8,0.1-1.4c0.1-0.2,0.1-0.3,0.2-0.5
		c0-0.2,0.1-0.3,0.1-0.4c0-0.1,0.1-0.3,0.2-0.6s0.2-0.6,0.3-0.9s0.2-0.6,0.3-0.8c0.1-0.2,0.1-0.4,0.2-0.4c0.1,0,0.1,0,0.1-0.1
		s0.1-0.2,0.1-0.3c0-0.1,0-0.2,0.1-0.4c0-0.1,0.1-0.2,0.2-0.3c0-0.1,0-0.1,0.1-0.2c0-0.1,0.1-0.2,0.1-0.2c0-0.1,0-0.1,0.1-0.2
		c0-0.1,0.1-0.1,0.1-0.2c0.1-0.2,0.2-0.5,0.4-0.9c0.2-0.4,0.3-0.8,0.5-1.3c0.2-0.5,0.4-1,0.5-1.4s0.3-0.9,0.4-1.2
		c0.1-0.3,0.2-0.5,0.2-0.6c0-0.1,0-0.2,0.1-0.3c0.1-0.1,0.2-0.1,0.3-0.1c0,0,0.1-0.1,0.2-0.1c0.1,0,0.2,0,0.2,0
		c0.1,0.1,0.2,0.2,0.3,0.3c0.1,0.1,0.2,0.2,0.2,0.3c0,0.1,0.1,0.3,0.1,0.4c0,0.2,0,0.3-0.1,0.5c0,0.1-0.1,0.4-0.3,0.6
		s-0.3,0.7-0.6,1.2c-0.1,0.3-0.2,0.5-0.4,0.8c-0.1,0.2-0.2,0.4-0.2,0.5c0,0.1,0,0.1-0.1,0.3c0,0.1-0.1,0.3-0.2,0.4
		c-0.1,0.1-0.1,0.3-0.2,0.5c-0.1,0.2-0.2,0.4-0.3,0.7c-0.1,0.2-0.2,0.5-0.3,0.6c-0.1,0.2-0.1,0.3-0.1,0.3c0,0.1,0,0.1,0,0.2
		c0,0.1,0,0.1-0.1,0.2c-0.1,0-0.1,0.1-0.1,0.2c0,0.1-0.1,0.5-0.3,1.1c-0.2,0.8-0.4,1.5-0.6,2.1c-0.2,0.6-0.3,1.2-0.3,1.6
		c0,0.3,0,0.6-0.1,0.7C33.1,64.5,33,64.6,32.9,64.7z"/>
	<path class="st0" d="M37.5,63.4c-0.1-0.1-0.2-0.3-0.4-0.8s-0.3-0.9-0.4-1.5c-0.1-0.6-0.3-1.1-0.3-1.6c-0.1-0.3-0.1-0.5-0.2-0.7
		c-0.1-0.2-0.1-0.4-0.2-0.5c-0.1-0.3-0.1-0.5,0-0.7c0.1-0.2,0.2-0.4,0.3-0.5c0.1,0,0.2-0.1,0.3-0.1c0.1,0,0.2,0,0.3,0
		c0.2,0.1,0.3,0.3,0.5,0.8c0.1,0.5,0.3,1.1,0.4,1.8c0.1,0.4,0.1,0.8,0.2,1.1c0.1,0.3,0.1,0.4,0.1,0.5c0.1,0.1,0.1,0.2,0.2,0.3
		c0.1,0.1,0.2,0.1,0.3,0c0.1-0.1,0.2-0.2,0.3-0.3c0.2-0.2,0.3-0.4,0.5-0.6c0.3-0.4,0.5-0.7,0.7-1c0.2-0.3,0.4-0.5,0.6-0.8
		c0.1-0.1,0.2-0.3,0.4-0.5s0.3-0.3,0.4-0.5c0.1-0.1,0.3-0.2,0.4-0.3c0.3-0.1,0.5,0,0.6,0.3s-0.1,0.5-0.4,0.9
		c-0.1,0.2-0.2,0.3-0.3,0.5c-0.1,0.1-0.1,0.2-0.2,0.3c-0.1,0.2-0.3,0.5-0.5,0.9c-0.2,0.3-0.5,0.7-0.7,0.9c-0.2,0.3-0.4,0.5-0.5,0.6
		c-0.1,0.1-0.2,0.2-0.4,0.3c-0.2,0.2-0.4,0.4-0.5,0.6c-0.3,0.3-0.6,0.5-0.9,0.6C37.9,63.6,37.7,63.5,37.5,63.4z"/>
	<path class="st0" d="M46.6,64c-0.3,0.3-0.7,0.4-1.1,0.4c-0.4,0-0.8,0-1.2-0.2c-0.4-0.2-0.7-0.4-0.9-0.7c-0.2-0.3-0.3-0.6-0.4-1
		s-0.1-0.9,0-1.6c0.1-0.6,0.2-1.2,0.5-1.8s0.7-1.1,1.1-1.6c0.4-0.5,0.9-0.8,1.4-0.9c0.2-0.1,0.4-0.2,0.5-0.2c0.2,0,0.4,0,0.7,0
		c0.3,0,0.6,0.1,0.8,0.2c0.2,0.1,0.3,0.2,0.4,0.4c0.2,0.2,0.4,0.4,0.4,0.6c0.1,0.2,0.1,0.4,0.1,0.6c-0.1,0.4-0.3,0.8-0.6,1.2
		s-0.8,0.8-1.4,1.1c-0.3,0.1-0.6,0.1-0.9,0.1s-0.7-0.1-1-0.2c-0.3-0.1-0.5-0.1-0.6,0.1c-0.1,0.1-0.2,0.5-0.2,1c0,0.4,0,0.8,0.1,1
		c0.1,0.2,0.3,0.4,0.5,0.4c0.3,0.1,0.5,0.1,0.7,0.1c0.2,0,0.3-0.1,0.6-0.2c0.2-0.1,0.3-0.2,0.4-0.2s0.1-0.1,0.2-0.1
		c0.1,0,0.2-0.1,0.3-0.2c0.1-0.1,0.2-0.1,0.2-0.2c0.1,0,0.1-0.1,0.2-0.1c0.1,0,0.2,0,0.3,0.1c0.1,0.1,0.2,0.2,0.2,0.2
		c0.1,0,0.1,0.2,0,0.3c-0.1,0.2-0.3,0.4-0.5,0.6S46.9,63.8,46.6,64z M46.5,59.4c0.1-0.1,0.3-0.2,0.5-0.3c0.2-0.1,0.3-0.3,0.5-0.5
		s0.2-0.3,0.2-0.4c0-0.2-0.1-0.3-0.3-0.5c-0.2-0.1-0.5-0.1-0.8-0.1c-0.1,0-0.3,0.1-0.5,0.3c-0.2,0.1-0.4,0.3-0.5,0.5
		s-0.3,0.4-0.4,0.5c-0.1,0.2-0.2,0.3-0.2,0.3c0,0.1,0.2,0.1,0.3,0.2c0.2,0,0.4,0.1,0.6,0C46.1,59.5,46.3,59.5,46.5,59.4z"/>
	<path class="st0" d="M50.1,63.9c-0.1-0.1-0.2-0.2-0.3-0.3c-0.1-0.1-0.1-0.3-0.1-0.6c0-0.4,0.1-0.7,0.2-1c0.1-0.3,0.2-0.6,0.3-1
		c0-0.2,0.1-0.5,0.2-0.9c0.1-0.4,0.3-0.8,0.5-1.3c0.2-0.5,0.4-0.9,0.6-1.4s0.4-0.7,0.5-1c0.1-0.1,0.3-0.1,0.5-0.1
		c0.2,0,0.4,0.1,0.5,0.2c0.2,0.1,0.2,0.3,0.1,0.7s-0.3,0.8-0.6,1.5c-0.1,0.3-0.2,0.6-0.3,0.7c-0.1,0.2-0.1,0.3-0.1,0.4
		c0,0.1,0,0.1,0.1,0c0.1-0.2,0.2-0.3,0.5-0.5c0.2-0.2,0.5-0.4,0.7-0.6c0.3-0.2,0.5-0.4,0.7-0.5c0.2-0.2,0.4-0.3,0.5-0.3
		c0.1-0.1,0.2-0.1,0.4-0.2c0.1,0,0.2-0.1,0.3-0.1c0.3-0.2,0.7-0.2,1-0.2c0.3,0,0.6,0.2,0.7,0.4c0,0.1,0.1,0.2,0.3,0.3
		c0.1,0,0.1,0,0.1,0.1c0,0.1-0.1,0.2-0.2,0.3c-0.2,0.1-0.4,0.1-0.6,0.1c-0.2,0-0.3,0-0.5,0.1c-0.1,0.1-0.3,0.1-0.5,0.2
		c-0.5,0.3-1,0.6-1.5,0.9c-0.5,0.3-0.9,0.7-1.4,1.2c-0.1,0.1-0.2,0.2-0.3,0.4c-0.1,0.1-0.2,0.3-0.3,0.5c-0.1,0.1-0.1,0.2-0.2,0.5
		c-0.1,0.2-0.1,0.5-0.2,0.7c0,0.2-0.1,0.3-0.1,0.4c-0.1,0.3-0.2,0.5-0.3,0.6c-0.2,0.2-0.3,0.3-0.4,0.4S50.3,64.1,50.1,63.9z"/>
</g>
</svg>
