<?xml version="1.0" encoding="utf-8"?>
<!-- Generator: Adobe Illustrator 28.0.0, SVG Export Plug-In . SVG Version: 6.00 Build 0)  -->
<svg version="1.1" id="Capa_1" xmlns="http://www.w3.org/2000/svg" xmlns:xlink="http://www.w3.org/1999/xlink" x="0px" y="0px"
	 viewBox="0 0 70 70" style="enable-background:new 0 0 70 70;" xml:space="preserve">
<path d="M16.3,39c-1.6,0-3,0-4.5,0c-0.6,0-1.2,0-1.7-0.3c-1.9-0.8-2.2-3.1-0.6-4.6c2.6-2.2,5.3-4.4,8-6.6c5-4.2,10-8.3,15.1-12.5
	c1.9-1.6,2.9-1.6,4.8,0c2,1.7,4,3.3,6,4.9c0.2,0.1,0.4,0.3,0.6,0.4c0.6-2.1,1.4-2.7,3.5-2.7c1.1,0,2.3,0,3.4,0c1.9,0,3,1.1,3,3
	c0,2.3,0,4.7,0,7c0,0.7,0.2,1.1,0.7,1.5c2,1.6,4,3.3,6,4.9c1.5,1.3,1.3,3.5-0.4,4.4c-0.5,0.3-1.2,0.3-1.8,0.3c-1.4,0-2.8,0-4.4,0
	c-0.1,0.7-0.2,1.3-0.2,1.9c0,4,0,7.9,0,11.9c0,2.1-1,3.1-3.1,3.2c-2.7,0-5.4,0-8.1,0c-2,0-3-1-3-3.1c0-2.3,0.1-4.6,0-6.9
	c-0.1-3.8-3.7-5.9-6.8-4c-1.6,1-2.1,2.5-2.1,4.2c0,2.2,0,4.5,0,6.7c0,2.1-1,3.1-3.1,3.1c-2.7,0-5.3,0-8,0c-2.1,0-3.1-1-3.1-3.1
	c0-4.2,0-8.3,0-12.5C16.3,40,16.3,39.6,16.3,39z"/>
</svg>
