<?xml version="1.0" encoding="UTF-8"?>
<svg id="Capa_1" data-name="Capa 1" xmlns="http://www.w3.org/2000/svg" viewBox="0 0 70 70">
  <defs>
    <style>
      .cls-1 {
        stroke-width: 0px;
      }
    </style>
  </defs>
  <path id="TT" class="cls-1" d="m35,11.5c-12.98,0-23.5,10.52-23.5,23.5s10.52,23.5,23.5,23.5,23.5-10.52,23.5-23.5-10.52-23.5-23.5-23.5Zm13.67,20.55c-.01.15-.01.16-.15.15-.33-.03-.66-.02-.99-.05-.79-.07-1.56-.21-2.32-.42-1.38-.38-2.67-.98-3.85-1.79-.05-.03-.09-.1-.17-.08v10.21c0,.38,0,.77-.02,1.16-.04.67-.13,1.34-.3,1.99-.55,2.07-1.65,3.79-3.3,5.15-1.71,1.41-3.69,2.15-5.9,2.26-.66.04-1.32-.01-1.97-.11-1.3-.21-2.52-.66-3.64-1.35-.05-.02-.08-.08-.15-.06-.08-.07-.16-.14-.25-.22-.19-.08-.35-.22-.51-.35-1.6-1.27-2.73-2.87-3.36-4.83-.21-.67-.35-1.37-.41-2.08-.05-.52-.06-1.03-.02-1.54.07-1.19.35-2.32.84-3.4.51-1.13,1.21-2.14,2.1-3,1.03-1.01,2.22-1.77,3.58-2.26.85-.31,1.73-.49,2.64-.56.65-.05,1.3-.03,1.96.04.08.01.14.03.13.14,0,.36.01,5.12.01,5.12,0,.07.01.14-.02.21-.05.01-.1-.01-.15-.02-.85-.23-1.7-.22-2.55.04-1.98.6-3.42,2.56-3.16,4.83.12,1.08.59,2,1.37,2.76.31.3.66.56,1.05.74.03.02.06.05.09.07.35.14.69.28,1.06.35,1.18.24,2.28.06,3.3-.57,1.18-.73,1.87-1.79,2.11-3.14.05-.26.06-.52.06-.78v-21.02c0-.33-.05-.29.28-.29h4.96c.16.01.17.01.16.17,0,.38.06.66.17,1.33.41,1.89,1.41,3.4,2.97,4.55.1.07.18.16.28.23.06.06.13.12.2.17h0s.02.01.02.01c.04,0,.07.02.1.04.79.45,1.64.75,2.53.9.35.06.71.09,1.06.09q.15,0,.15.15v.98s.01.01.01.02v4.06Z"/>
</svg>