<?xml version="1.0" encoding="utf-8"?>
<!-- Generator: Adobe Illustrator 28.0.0, SVG Export Plug-In . SVG Version: 6.00 Build 0)  -->
<svg version="1.1" id="Capa_1" xmlns="http://www.w3.org/2000/svg" xmlns:xlink="http://www.w3.org/1999/xlink" x="0px" y="0px"
	 viewBox="0 0 70 70" style="enable-background:new 0 0 70 70;" xml:space="preserve">
<style type="text/css">
	.st0{fill:#116331;}
	.st1{fill-rule:evenodd;clip-rule:evenodd;fill:#116331;}
</style>
<g id="Wa">
	<path class="st0" d="M35,11.5C22,11.5,11.5,22,11.5,35S22,58.5,35,58.5S58.5,48,58.5,35S48,11.5,35,11.5z M35.8,49.4L35.8,49.4
		c-2.5,0-5-0.6-7.1-1.8l-7.9,2.1l2.1-7.7c-1.3-2.3-2-4.8-2-7.5c0-8.2,6.7-14.9,14.9-14.9c4,0,7.7,1.5,10.5,4.4
		c2.8,2.8,4.4,6.6,4.4,10.5C50.7,42.7,44,49.4,35.8,49.4L35.8,49.4z"/>
	<path class="st1" d="M44.5,25.8c-2.3-2.3-5.5-3.6-8.8-3.6c-6.8,0-12.4,5.6-12.4,12.4c0,2.3,0.6,4.6,1.9,6.6l0.3,0.5l-1.2,4.6
		l4.7-1.2l0.5,0.3c1.9,1.1,4.1,1.7,6.3,1.7l0,0c6.8,0,12.4-5.6,12.4-12.4C48.1,31.2,46.8,28.1,44.5,25.8L44.5,25.8z M43,39.8
		c-0.3,0.9-1.8,1.7-2.5,1.8c-0.6,0.1-1.5,0.1-2.3-0.2c-0.5-0.2-1.2-0.4-2.1-0.8c-3.7-1.6-6.2-5.4-6.4-5.6s-1.5-2-1.5-3.9
		s1-2.7,1.3-3.1s0.7-0.5,1-0.5s0.5,0,0.7,0s0.5-0.1,0.8,0.6c0.3,0.8,1.1,2.6,1.2,2.8c0.1,0.2,0.2,0.4,0,0.6
		c-0.1,0.2-0.2,0.4-0.4,0.6c-0.2,0.2-0.4,0.5-0.6,0.7C32,33,31.8,33.2,32,33.6c0.2,0.4,1,1.6,2.1,2.6c1.4,1.3,2.6,1.7,3,1.8
		c0.4,0.2,0.6,0.2,0.8-0.1s0.9-1.1,1.2-1.5s0.5-0.3,0.8-0.2s2.2,1,2.5,1.2c0.4,0.2,0.6,0.3,0.7,0.4C43.4,38.2,43.4,38.9,43,39.8
		L43,39.8z"/>
</g>
</svg>
