<?xml version="1.0" encoding="UTF-8"?>
<svg id="Capa_1" data-name="Capa 1" xmlns="http://www.w3.org/2000/svg" viewBox="0 0 70 70">
  <defs>
    <style>
      .cls-1 {
        stroke-width: 0px;
      }
    </style>
  </defs>
  <g id="Ins">
    <g>
      <path class="cls-1" d="m35,11.5c-12.98,0-23.5,10.52-23.5,23.5s10.52,23.5,23.5,23.5,23.5-10.52,23.5-23.5-10.52-23.5-23.5-23.5Zm14.71,29.6c-.07,1.57-.32,2.65-.69,3.59-.38.97-.88,1.8-1.71,2.62s-1.65,1.33-2.62,1.71c-.94.37-2.02.62-3.59.69-1.58.07-2.08.09-6.1.09s-4.52-.02-6.1-.09c-1.57-.07-2.65-.32-3.59-.69-.97-.38-1.8-.88-2.62-1.71-.82-.82-1.33-1.65-1.71-2.62-.37-.94-.62-2.02-.69-3.59-.07-1.58-.09-2.08-.09-6.1s.02-4.52.09-6.1c.07-1.57.32-2.65.69-3.59.38-.97.88-1.8,1.71-2.62.82-.82,1.65-1.33,2.62-1.71.94-.37,2.02-.62,3.59-.69,1.58-.07,2.08-.09,6.1-.09s4.52.02,6.1.09c1.57.07,2.65.32,3.59.69.97.38,1.8.88,2.62,1.71s1.33,1.65,1.71,2.62c.37.94.62,2.02.69,3.59.07,1.58.09,2.08.09,6.1s-.02,4.52-.09,6.1Z"/>
      <path class="cls-1" d="m47.04,29.02c-.07-1.44-.31-2.23-.51-2.75-.27-.69-.59-1.18-1.11-1.7s-1.01-.84-1.7-1.11c-.52-.2-1.3-.44-2.75-.51-1.56-.07-2.03-.09-5.98-.09s-4.42.02-5.98.09c-1.44.07-2.23.31-2.75.51-.69.27-1.18.59-1.7,1.11s-.84,1.01-1.11,1.7c-.2.52-.44,1.3-.51,2.75-.07,1.56-.09,2.03-.09,5.98s.02,4.42.09,5.98c.07,1.44.31,2.23.51,2.75.27.69.59,1.18,1.11,1.7s1.01.84,1.7,1.11c.52.2,1.3.44,2.75.51,1.56.07,2.03.09,5.98.09s4.42-.02,5.98-.09c1.44-.07,2.23-.31,2.75-.51.69-.27,1.18-.59,1.7-1.11s.84-1.01,1.11-1.7c.2-.52.44-1.3.51-2.75.07-1.56.09-2.03.09-5.98s-.02-4.42-.09-5.98Zm-12.04,13.58c-4.2,0-7.6-3.4-7.6-7.6s3.4-7.6,7.6-7.6,7.6,3.4,7.6,7.6-3.4,7.6-7.6,7.6Zm7.9-13.72c-.98,0-1.78-.79-1.78-1.78s.79-1.78,1.78-1.78,1.78.79,1.78,1.78-.79,1.78-1.78,1.78Z"/>
      <circle class="cls-1" cx="35" cy="35" r="4.93"/>
    </g>
  </g>
</svg>