<?xml version="1.0" encoding="utf-8"?>
<!-- Generator: Adobe Illustrator 28.0.0, SVG Export Plug-In . SVG Version: 6.00 Build 0)  -->
<svg version="1.1" id="Capa_1" xmlns="http://www.w3.org/2000/svg" xmlns:xlink="http://www.w3.org/1999/xlink" x="0px" y="0px"
	 viewBox="0 0 70 70" style="enable-background:new 0 0 70 70;" xml:space="preserve">
<path d="M57.3,18.3l-13-2.5c-2.8-0.6-5.6,1.3-6.1,4.1l-2.5,13c-0.5,2.8,1.3,5.6,4.1,6.1l13,2.5c2.8,0.5,5.6-1.3,6.1-4.1l2.5-13
	C61.9,21.6,60.1,18.8,57.3,18.3z M45.4,20.8c1.4,0.3,2.3,1.6,2,3c-0.3,1.4-1.6,2.3-3,2s-2.3-1.6-2-3S44,20.5,45.4,20.8z M42.7,34.7
	c-1.4-0.3-2.3-1.6-2-3s1.6-2.3,3-2s2.3,1.6,2,3C45.4,34.1,44,35,42.7,34.7z M48,31.1c-1.4-0.3-2.3-1.6-2-3s1.6-2.3,3-2s2.3,1.6,2,3
	S49.4,31.4,48,31.1z M51.6,36.5c-1.4-0.3-2.3-1.6-2-3s1.6-2.3,3-2s2.3,1.6,2,3S53,36.7,51.6,36.5z M53.4,27.5c-1.4-0.3-2.3-1.6-2-3
	s1.6-2.3,3-2s2.3,1.6,2,3S54.7,27.8,53.4,27.5z"/>
<path d="M24.1,27L11.8,32c-2.7,1.1-4,4.1-2.9,6.8l4.9,12.3c1.1,2.7,4.1,4,6.8,2.9L32.9,49c2.7-1.1,4-4.1,2.9-6.8l-4.9-12.3
	C29.8,27.2,26.8,25.9,24.1,27z M21.5,50.5c-1.3,0.5-2.8-0.1-3.3-1.4s0.1-2.8,1.4-3.3s2.8,0.1,3.3,1.4S22.7,50,21.5,50.5z M19.1,44.5
	c-1.3,0.5-2.8-0.1-3.3-1.4s0.1-2.8,1.4-3.3s2.8,0.1,3.3,1.4S20.4,44,19.1,44.5z M16.7,38.6c-1.3,0.5-2.8-0.1-3.3-1.4
	s0.1-2.8,1.4-3.3s2.8,0.1,3.3,1.4S18,38,16.7,38.6z M29.9,47.1c-1.3,0.5-2.8-0.1-3.3-1.4s0.1-2.8,1.4-3.3c1.3-0.5,2.8,0.1,3.3,1.4
	S31.2,46.6,29.9,47.1z M27.5,41.1c-1.3,0.5-2.8-0.1-3.3-1.4s0.1-2.8,1.4-3.3s2.8,0.1,3.3,1.4S28.8,40.6,27.5,41.1z M25.1,35.2
	c-1.3,0.5-2.8-0.1-3.3-1.4s0.1-2.8,1.4-3.3s2.8,0.1,3.3,1.4C27,33.2,26.4,34.7,25.1,35.2z"/>
</svg>
