<?xml version="1.0" encoding="UTF-8"?>
<svg id="Capa_1" data-name="Capa 1" xmlns="http://www.w3.org/2000/svg" viewBox="0 0 70 70">
  <path d="m57.28,18.29l-13.03-2.53c-2.82-.55-5.56,1.29-6.11,4.12l-2.53,13.03c-.55,2.82,1.29,5.56,4.12,6.11l13.03,2.53c2.82.55,5.56-1.29,6.11-4.12l2.53-13.03c.55-2.82-1.29-5.56-4.12-6.11Zm-11.89,2.53c1.37.27,2.26,1.59,1.99,2.96-.27,1.37-1.59,2.26-2.96,1.99s-2.26-1.59-1.99-2.96,1.59-2.26,2.96-1.99Zm-2.71,13.92c-1.37-.27-2.26-1.59-1.99-2.96s1.59-2.26,2.96-1.99,2.26,1.59,1.99,2.96-1.59,2.26-2.96,1.99Zm5.34-3.62c-1.37-.27-2.26-1.59-1.99-2.96s1.59-2.26,2.96-1.99c1.37.27,2.26,1.59,1.99,2.96s-1.59,2.26-2.96,1.99Zm3.59,5.36c-1.37-.27-2.26-1.59-1.99-2.96s1.59-2.26,2.96-1.99,2.26,1.59,1.99,2.96-1.59,2.26-2.96,1.99Zm1.75-8.98c-1.37-.27-2.26-1.59-1.99-2.96s1.59-2.26,2.96-1.99,2.26,1.59,1.99,2.96-1.59,2.26-2.96,1.99Z"/>
  <path d="m24.09,27.03l-12.32,4.94c-2.67,1.07-3.97,4.1-2.89,6.77l4.94,12.32c1.07,2.67,4.1,3.97,6.77,2.89l12.32-4.94c2.67-1.07,3.97-4.1,2.89-6.77l-4.94-12.32c-1.07-2.67-4.1-3.97-6.77-2.89Zm-2.64,23.46c-1.29.52-2.76-.11-3.28-1.4-.52-1.29.11-2.76,1.4-3.28s2.76.11,3.28,1.4c.52,1.29-.11,2.76-1.4,3.28Zm-2.39-5.96c-1.29.52-2.76-.11-3.28-1.4-.52-1.29.11-2.76,1.4-3.28s2.76.11,3.28,1.4c.52,1.29-.11,2.76-1.4,3.28Zm-2.39-5.96c-1.29.52-2.76-.11-3.28-1.4s.11-2.76,1.4-3.28,2.76.11,3.28,1.4c.52,1.29-.11,2.76-1.4,3.28Zm13.23,8.53c-1.29.52-2.76-.11-3.28-1.4-.52-1.29.11-2.76,1.4-3.28,1.29-.52,2.76.11,3.28,1.4.52,1.29-.11,2.76-1.4,3.28Zm-2.39-5.96c-1.29.52-2.76-.11-3.28-1.4-.52-1.29.11-2.76,1.4-3.28s2.76.11,3.28,1.4-.11,2.76-1.4,3.28Zm-2.39-5.96c-1.29.52-2.76-.11-3.28-1.4-.52-1.29.11-2.76,1.4-3.28s2.76.11,3.28,1.4c.52,1.29-.11,2.76-1.4,3.28Z"/>
</svg>