<?xml version="1.0" encoding="UTF-8"?>
<svg id="Capa_1" data-name="Capa 1" xmlns="http://www.w3.org/2000/svg" viewBox="0 0 70 70">
  <path d="m35,13.81c-14.64,0-26.5,8.22-26.5,18.36,0,4.66,2.5,8.9,6.62,12.14,2.05,5.4-5.19,9.8-5.26,9.84-.37.22-.57.65-.49,1.07.08.42.41.76.84.83.1.02.83.14,1.95.14,3.01,0,8.86-.88,13.08-6.95,3.02.83,6.31,1.29,9.76,1.29,14.64,0,26.5-8.22,26.5-18.36s-11.86-18.36-26.5-18.36Zm-9.21,21c-1.46,0-2.64-1.18-2.64-2.64s1.18-2.64,2.64-2.64,2.64,1.18,2.64,2.64-1.18,2.64-2.64,2.64Zm9.21,0c-1.46,0-2.64-1.18-2.64-2.64s1.18-2.64,2.64-2.64,2.64,1.18,2.64,2.64-1.18,2.64-2.64,2.64Zm9.21,0c-1.46,0-2.64-1.18-2.64-2.64s1.18-2.64,2.64-2.64,2.64,1.18,2.64,2.64-1.18,2.64-2.64,2.64Z"/>
</svg>