<?xml version="1.0" encoding="UTF-8"?>
<svg id="Capa_1" data-name="Capa 1" xmlns="http://www.w3.org/2000/svg" viewBox="0 0 70 70">
  <path d="m60.22,9.26c-.09-.19-.28-.3-.49-.3h-7.27s-.01,0-.02,0c-.08,0-.16.02-.23.05l-6.85,3.42-.07-.34c-.47-2.4-2.8-3.97-5.2-3.51-1.67.33-2.94,1.56-3.4,3.09-1.18-1.02-2.88-1.34-4.4-.68-1.03.44-1.82,1.26-2.23,2.3-.24.61-.33,1.25-.28,1.88-1.34-.89-3.13-1.01-4.62-.15-1.48.85-2.27,2.44-2.18,4.04-1.14-.58-2.56-.53-3.68.25l-.22.16c-1.32.92-1.83,2.57-1.37,4.02v2.72l-2.96,1.48-2.91,1.45c-1.88.93-2.64,3.22-1.7,5.1.45.91,1.23,1.59,2.2,1.91.96.32,1.99.25,2.9-.2l2.48-1.23v1.73c0,3.69,2.55,7.12,5.31,9.19l-1.42,14.63c-.06.62.39,1.17,1.01,1.23.04,0,.07,0,.11,0,.57,0,1.06-.44,1.12-1.02l1.31-13.55c.48.23.95.4,1.39.52.1.03.19.04.29.04.5,0,.95-.33,1.09-.84.16-.6-.2-1.22-.8-1.38-2.82-.75-7.16-4.88-7.16-8.83v-2.85l3.45-1.72c.52.56,1.21.93,1.97,1.07.21.04.43.06.64.06.73,0,1.44-.22,2.05-.65l.23-.16s0,0,0,0c.68-.47,1.14-1.15,1.37-1.88.31.17.64.31.99.4.38.1.76.15,1.14.15.76,0,1.51-.2,2.19-.59h0c1.07-.62,1.78-1.62,2.06-2.74.56.26,1.17.4,1.79.4.55,0,1.12-.11,1.66-.34,1.03-.44,1.82-1.26,2.23-2.3.08-.21.14-.43.19-.64.55.43.85.84.83,1.31-.02.86-.21,1.59-.37,2.05-2.59.49-11.45,2.93-11.82,13.6-.02.62.46,1.14,1.09,1.16.62.02,1.14-.46,1.16-1.09.36-10.43,10.08-11.5,10.49-11.54.39-.04.73-.27.9-.62.03-.06.75-1.53.8-3.51.05-2.17-1.78-3.35-3.73-4.41-.06-.04-.13-.08-.2-.11-.13-.07-.25-.14-.38-.2l-.25-.13s-.03-.02-.05-.02c-1.19-.57-1.93-1.34-2.26-2.35-.4-1.21-.13-2.54.15-3.4,4.7,1.96,9.61,4.24,10.3,4.98.89.95,1.8,8.79,1.22,12.22-.45,2.66-6.98,10.5-11.16,12.79-.55.3-.74.98-.45,1.53.2.37.59.58.99.58.18,0,.37-.04.54-.14.8-.44,1.72-1.09,2.68-1.89l1.81,15.05c.07.57.55.99,1.12.99.04,0,.09,0,.14,0,.62-.07,1.06-.63.98-1.25l-2-16.62c3.56-3.43,7.12-8.06,7.57-10.65.56-3.26-.02-12.26-1.8-14.15-.06-.07-.14-.14-.23-.21l5.62-2.8c.07-.04.13-.09.18-.15,0,0,0,0,.01,0l4.37-5.81s.06-.1.08-.16c.05-.14.04-.29-.03-.42Zm-19.7,1.53c1.18-.23,2.33.54,2.56,1.73l.53,2.73c-1.91-.86-3.76-1.64-4.85-2.09-.12-1.11.64-2.15,1.75-2.37Zm-13.53,19.56l-.23.16c-.29.21-.65.28-1,.22-.35-.06-.66-.26-.86-.55l-4.87-6.99c-.04-.05-.06-.11-.09-.16-.02-.14-.06-.28-.13-.4-.08-.49.12-1,.55-1.31l.22-.16c.23-.16.5-.24.77-.24.42,0,.84.2,1.1.57l4.87,6.99c.42.61.27,1.44-.33,1.87Zm5.85-2.02c-.49.29-1.07.36-1.62.21-.55-.15-1.01-.5-1.3-1l-4.42-7.66c-.59-1.02-.24-2.33.78-2.92.33-.19.69-.29,1.06-.29.19,0,.37.02.56.07.55.15,1.01.5,1.3,1l4.42,7.66c.59,1.02.24,2.33-.78,2.92Zm6.55-5.17l.23.12s.06.03.09.05c.09.38.06.77-.09,1.14-.19.48-.56.86-1.03,1.07-.98.43-2.13-.03-2.55-1.01l-3.86-8.92c-.21-.48-.21-1-.02-1.49.19-.48.56-.86,1.03-1.07.98-.43,2.13.03,2.55,1.01l.35.81c-.36,1.18-.66,2.91-.1,4.61.52,1.6,1.67,2.83,3.41,3.67Z"/>
</svg>