<?xml version="1.0" encoding="UTF-8"?>
<svg id="Capa_1" data-name="Capa 1" xmlns="http://www.w3.org/2000/svg" viewBox="0 0 70 70">
  <g>
    <path d="m40.44,19.82c.08-4.17,3.49-7.53,7.68-7.53s7.68,3.44,7.68,7.68-3.44,7.68-7.68,7.68c-1.22,0-2.37-.28-3.39-.79-.24-2.2-1.22-4.23-2.8-5.82-.46-.46-.95-.86-1.48-1.22Z"/>
    <path d="m49.45,41.55c-1.44-3.26-4.19-5.67-7.47-6.73,1.72-1.75,2.71-4.03,2.8-6.47.05,0,.09,0,.14,0h6.41c4.16,0,7.74,2.5,9.32,6.07.55,1.26.86,2.65.86,4.11v7.24c-2.53,2.05-6.47,3.49-11.01,3.87v-3.12c0-1.72-.35-3.39-1.04-4.96Z"/>
  </g>
  <g>
    <path d="m29.56,19.82c-.08-4.17-3.49-7.53-7.68-7.53s-7.68,3.44-7.68,7.68,3.44,7.68,7.68,7.68c1.22,0,2.37-.28,3.39-.79.24-2.2,1.22-4.23,2.8-5.82.46-.46.95-.86,1.48-1.22Z"/>
    <path d="m20.55,41.55c1.44-3.26,4.19-5.67,7.47-6.73-1.72-1.75-2.71-4.03-2.8-6.47-.05,0-.09,0-.14,0h-6.41c-4.16,0-7.74,2.5-9.32,6.07-.55,1.26-.86,2.65-.86,4.11v7.24c2.53,2.05,6.47,3.49,11.01,3.87v-3.12c0-1.72.35-3.39,1.04-4.96Z"/>
  </g>
  <g>
    <circle cx="35" cy="27.95" r="7.68"/>
    <path d="m48.38,46.51v7.24c-2.96,2.4-7.85,3.96-13.38,3.96s-10.42-1.57-13.38-3.96v-7.24c0-1.46.31-2.85.86-4.11,1.58-3.58,5.16-6.07,9.32-6.07h6.41c4.16,0,7.74,2.5,9.32,6.07.55,1.26.86,2.65.86,4.11Z"/>
  </g>
</svg>